<?xml version="1.0" encoding="UTF-8"?>
<svg width="512px" height="440px" viewBox="0 0 512 440" version="1.1" xmlns="http://www.w3.org/2000/svg" xmlns:xlink="http://www.w3.org/1999/xlink">
    <title>Group 17 Copy</title>
    <defs>
        <polygon id="path-1" points="0.365154958 0.849648252 335.107026 0.849648252 335.107026 327.172848 0.365154958 327.172848"></polygon>
    </defs>
    <g id="1.Registation" stroke="none" stroke-width="1" fill="none" fill-rule="evenodd">
        <g id="Group-17-Copy">
            <g id="Group-3" transform="translate(87.771429, 0.000000)">
                <mask id="mask-2" fill="white">
                    <use xlink:href="#path-1"></use>
                </mask>
                <g id="Clip-2"></g>
                <path d="M286.947474,84.2125121 C274.308891,98.3602949 261.73298,112.560163 248.926168,126.559827 C246.171837,129.562894 242.658829,131.929539 239.35858,134.421515 C234.740541,137.901492 229.118078,137.776161 223.675389,138.47118 C220.178874,138.917164 216.726889,140.010964 213.363967,141.119413 C209.806428,142.294597 208.272579,141.669568 207.576575,138.173314 C206.781612,134.205034 205.552884,130.244892 205.445679,126.258707 C205.381357,123.699996 206.313211,120.516257 207.993847,118.631405 C212.283676,113.821614 216.952843,109.233188 221.999701,105.186779 C235.294706,94.530367 248.866793,84.1994907 262.361363,73.779092 C263.271777,73.0775625 264.454325,72.7227286 265.514824,72.2051268 C265.729233,72.4948536 265.938694,72.786208 266.153103,73.0743072 C264.907882,74.2332143 263.693998,75.4181644 262.424037,76.544518 C248.87339,88.5209775 235.321094,100.489299 221.768799,112.460875 C220.973836,113.162404 220.061773,113.793944 219.453182,114.630571 C219.039208,115.201886 218.684608,116.477986 218.960041,116.723765 C219.557088,117.24625 220.766024,117.726415 221.391109,117.464359 C222.77817,116.883278 224.054728,115.940852 225.202641,114.959362 C240.057883,102.313926 254.873543,89.6180329 269.746928,76.9970127 C270.591369,76.2792064 271.904212,76.083885 272.997697,75.6444117 C273.18077,76.0073841 273.363842,76.3687287 273.543615,76.7284457 C266.407096,83.4019281 259.282121,90.083549 252.132406,96.7472653 C244.789724,103.591654 237.38107,110.369308 230.140644,117.30973 C229.068599,118.335167 227.833274,120.998049 228.230755,121.377299 C230.15054,123.23448 232.17588,122.010466 233.810336,120.49998 C239.365177,115.372792 244.865592,110.191891 250.390746,105.03215 C259.102347,96.8872457 267.795806,88.7179266 276.568431,80.6413852 C277.506883,79.7770878 278.956617,79.441786 280.170502,78.8607047 C280.36347,79.2008896 280.564684,79.537819 280.756003,79.8763762 C266.146506,94.8363706 251.53536,109.794737 236.823606,124.855648 C240.011703,127.611308 241.73687,125.703668 243.399364,124.077617 C252.693168,115.004937 261.952337,105.90133 271.214804,96.7977234 C275.509581,92.5787803 279.754878,88.3142623 284.077693,84.1229898 C284.877603,83.3482148 285.9447,82.8371237 287.490094,82.8094531 C287.315268,83.2814799 287.262491,83.8609335 286.947474,84.2125121 L286.947474,84.2125121 Z M248.017404,256.144207 C244.875488,257.132208 241.575239,257.638416 238.349209,258.364361 C232.477702,257.931398 227.529803,256.134441 223.65065,251.798305 C219.261863,246.890854 214.625682,242.178724 210.467797,237.093856 C209.318235,235.69568 209.245666,233.299737 209.102177,231.326991 C208.914157,228.792695 208.275878,225.682201 209.474919,223.839669 C210.504082,222.267332 213.299645,222.267332 216.147985,221.316767 C221.081041,219.410756 223.362022,220.149722 226.761229,223.286258 C234.552521,230.47897 242.846849,237.144314 250.822863,244.149843 C256.78838,249.397479 255.77406,253.702689 248.017404,256.144207 L248.017404,256.144207 Z M205.887692,229.510502 L187.699214,162.007413 C187.369354,160.773632 186.270921,159.888175 184.966325,159.798653 C184.893756,159.79377 184.826134,159.792142 184.753565,159.792142 C183.531434,159.792142 182.421455,160.506693 181.948106,161.61677 L163.543571,204.605391 L145.018636,161.610259 C144.543638,160.50181 143.43201,159.792142 142.213177,159.792142 C142.140608,159.792142 142.069688,159.79377 141.997119,159.798653 C140.697471,159.889803 139.597388,160.77526 139.267528,162.007413 L120.943808,230.031359 L120.943808,220.708015 C84.3277051,214.638402 84.472839,181.801613 84.472839,181.801613 C88.5020827,149.677747 121.966374,145.393697 121.966374,145.393697 C129.285966,112.198819 162.976212,112.198819 162.976212,112.198819 C199.585717,112.91337 204.723286,146.10662 204.723286,146.10662 C237.676294,150.032581 241.725325,179.301498 241.725325,179.301498 C242.457614,216.423965 205.887692,220.346671 205.887692,220.346671 L205.887692,229.510502 Z M205.887692,238.910346 L120.943808,238.910346 L120.943808,233.457622 C121.011429,233.57156 121.065856,233.692008 121.153269,233.799435 C121.732173,234.527007 122.619497,234.951831 123.564545,234.951831 L132.635694,234.951831 C134.021106,234.951831 135.230042,234.040331 135.579694,232.736561 L144.748151,198.545543 L160.757903,235.690797 C161.231252,236.792736 162.332985,237.507287 163.563362,237.507287 C164.792091,237.507287 165.890524,236.795991 166.37047,235.69568 L182.304355,198.90526 L191.330972,232.733305 C191.678975,234.040331 192.892859,234.951831 194.278271,234.951831 L203.405496,234.951831 C204.347246,234.951831 205.237868,234.527007 205.815122,233.799435 C205.843161,233.760371 205.858004,233.721306 205.887692,233.68387 L205.887692,238.910346 Z M195.520194,253.904521 L129.615826,253.904521 C124.026349,253.904521 121.994412,249.280286 121.255526,244.654424 L205.384655,244.654424 C203.540738,252.36311 195.520194,253.904521 195.520194,253.904521 L195.520194,253.904521 Z M110.239853,250.230851 C102.671217,257.452861 93.9629141,258.759887 84.9148558,253.508995 C79.721211,250.489652 78.7431762,245.352698 83.1764939,241.374651 C90.7187415,234.605136 98.595797,228.183943 106.429971,221.730198 C107.134222,221.144233 108.641682,221.066105 109.63456,221.305374 C117.353283,223.16581 117.345036,223.204874 117.345036,230.863103 L117.345036,233.30462 C117.82993,240.97587 115.210842,245.487795 110.239853,250.230851 L110.239853,250.230851 Z M49.2058676,76.6796154 C46.484523,72.6820366 48.4686306,69.4657436 53.4594115,69.6675758 C58.4073107,69.8710356 63.7131079,70.0191543 68.187658,71.8030901 C93.2949477,81.8181968 114.495046,97.1427913 131.794551,118.069856 C124.918621,124.515463 120.221415,131.905124 118.080624,140.808526 C117.387918,143.68789 115.120131,143.889722 112.784722,141.405884 C105.925285,134.10249 99.3742664,126.504486 92.2262015,119.484308 C81.3705107,108.832779 70.0249779,98.6597877 59.0736278,88.1010364 C55.4550642,84.6096657 52.0063785,80.8057807 49.2058676,76.6796154 L49.2058676,76.6796154 Z M312.269173,0.849322716 L23.2096054,0.849322716 C10.6122541,0.849322716 0.365154958,10.8383865 0.365154958,23.1159666 L0.365154958,304.906204 C0.365154958,317.185412 10.6122541,327.172848 23.2096054,327.172848 L312.269173,327.172848 C324.859927,327.172848 335.107026,317.185412 335.107026,304.906204 L335.107026,23.1159666 C335.107026,10.8383865 324.859927,0.849322716 312.269173,0.849322716 L312.269173,0.849322716 Z" id="Fill-1" fill="#710E1A" mask="url(#mask-2)"></path>
            </g>
            <path d="M97.5238095,439.999836 L86.078176,439.999836 L86.078176,387.388971 C86.078176,381.38243 85.0869639,377.046794 83.1061779,374.377034 C80.6863095,371.112318 76.428193,369.481636 70.3367437,369.481636 C64.2452943,369.481636 59.9527721,371.112318 57.4575388,374.377034 C55.4767529,377.120535 54.4855407,381.457847 54.4855407,387.388971 L54.4855407,439.999836 L43.0382688,439.999836 L43.0382688,387.388971 C43.0382688,381.38243 42.048695,377.046794 40.0662707,374.377034 C37.6431255,371.112318 33.3882858,369.481636 27.2968365,369.481636 C21.2053871,369.481636 16.9112266,371.112318 14.4176316,374.377034 C12.4368457,377.120535 11.4456335,381.457847 11.4456335,387.388971 L11.4456335,439.999836 L0,439.999836 L0,387.388971 C0,367.664925 9.09621488,357.802064 27.2968365,357.802064 C36.9845019,357.802064 44.1392516,360.807011 48.7627239,366.811876 C53.4582844,360.807011 60.6507166,357.802064 70.3367437,357.802064 C88.4620004,357.802064 97.5238095,367.664925 97.5238095,387.388971 L97.5238095,439.999836 Z" id="Fill-4" fill="#710E1A"></path>
            <path d="M248.685714,439.999836 L237.418101,439.999836 L237.418101,387.306851 C237.418101,381.29193 236.440693,376.947914 234.492328,374.273126 C232.106872,370.929641 227.916597,369.258737 221.921505,369.258737 C215.924799,369.258737 211.736138,370.929641 209.353907,374.273126 C207.39909,376.947914 206.424908,381.29193 206.424908,387.306851 L206.424908,439.999836 L195.047619,439.999836 L195.047619,387.388971 C195.047619,367.664925 204.005581,357.802064 221.921505,357.802064 C239.764849,357.802064 248.685714,367.664925 248.685714,387.388971 L248.685714,439.999836 Z" id="Fill-6" fill="#710E1A"></path>
            <path d="M311.859343,411.086112 C311.859343,430.363133 302.297421,440 283.18218,440 C264.140943,440 254.622046,430.363133 254.622046,411.086112 L254.622046,359.370562 L266.646732,359.370562 L266.646732,411.169954 C266.646732,417.071754 267.686221,421.332886 269.770362,423.954995 C272.312291,427.159064 276.783471,428.763565 283.18218,428.763565 C289.58089,428.763565 294.088211,427.159064 296.711027,423.954995 C298.791727,421.257264 299.832937,416.997776 299.832937,411.169954 L299.832937,359.370562 L311.859343,359.370562 L311.859343,411.086112 Z" id="Fill-8" fill="#710E1A"></path>
            <path d="M419.352381,439.999836 L407.905301,439.999836 L407.905301,387.388971 C407.905301,381.38243 406.915744,377.046794 404.933353,374.377034 C402.515164,371.112318 398.255481,369.481636 392.165772,369.481636 C386.074425,369.481636 381.780336,371.112318 379.285145,374.377034 C377.306031,377.120535 376.314835,381.457847 376.314835,387.388971 L376.314835,439.999836 L364.869394,439.999836 L364.869394,387.388971 C364.869394,381.38243 363.87656,377.046794 361.895807,374.377034 C359.471065,371.112318 355.217935,369.481636 349.126588,369.481636 C343.035241,369.481636 338.741152,371.112318 336.247599,374.377034 C334.265208,377.120535 333.274013,381.457847 333.274013,387.388971 L333.274013,439.999836 L321.828571,439.999836 L321.828571,387.388971 C321.828571,367.664925 330.924633,357.802064 349.126588,357.802064 C358.812452,357.802064 365.967082,360.807011 370.588838,366.811876 C375.287596,360.807011 382.478269,357.802064 392.165772,357.802064 C410.289086,357.802064 419.352381,367.664925 419.352381,387.388971 L419.352381,439.999836 Z" id="Fill-11" fill="#710E1A"></path>
            <polygon id="Fill-13" fill="#710E1A" points="429.104762 439.999836 438.857143 439.999836 438.857143 357.802064 429.104762 357.802064"></polygon>
            <path d="M512,439.999836 L448.609524,439.999836 L448.609524,428.544839 C448.609524,417.475307 451.907383,409.006821 458.506527,403.134355 C462.417384,399.718805 469.088444,396.412191 478.52313,393.21954 C486.269504,390.544752 491.408069,388.091187 493.938825,385.862197 C498.002076,382.295813 500.03627,376.837302 500.03627,369.481636 L448.609524,369.481636 L448.609524,357.802064 L512,357.802064 L512,369.481636 C512,380.234417 508.738098,388.500115 502.221144,394.285433 C498.38734,397.622214 491.791621,400.885254 482.433987,404.072877 C474.612273,406.742637 469.394943,409.264915 466.790558,411.636359 C462.723883,415.271456 460.689689,420.869069 460.689689,428.432551 L512,428.544839 L512,439.999836 Z" id="Fill-15" fill="#710E1A"></path>
            <path d="M143.917892,368.298536 C137.146597,368.298536 130.930793,370.345851 125.447834,374.380118 C119.969895,378.421092 116.198584,383.734722 114.247674,390.173452 L113.173503,393.721461 L174.525081,393.721461 L173.447564,390.173452 C171.493308,383.736398 167.752113,378.426122 162.329389,374.390179 C156.886586,370.347528 150.694206,368.298536 143.917892,368.298536 M143.917892,439.999836 C132.297768,439.999836 122.680421,436.072881 114.5204,427.99764 C106.367072,419.920722 102.4,410.40012 102.4,398.899273 C102.4,387.398426 106.367072,377.882855 114.5204,369.802583 C122.680421,361.727342 132.297768,357.802064 143.917892,357.802064 C155.541362,357.802064 165.125246,361.735726 173.230052,369.831088 C181.346571,377.928127 185.295238,387.47388 185.295238,399.018323 L185.295238,404.219609 L113.181869,404.219609 L114.247674,407.764265 C116.198584,414.261681 119.948144,419.566927 125.394293,423.532447 C130.82371,427.494614 137.061266,429.501687 143.917892,429.501687 C151.520749,429.501687 158.434263,426.600905 164.489444,420.871441 L173.892625,426.277291 C165.15369,435.502785 155.320505,439.999836 143.917892,439.999836" id="Fill-16" fill="#710E1A"></path>
        </g>
    </g>
</svg>